<?xml version="1.0" standalone="no"?>
<!DOCTYPE svg PUBLIC "-//W3C//DTD SVG 20010904//EN"
 "http://www.w3.org/TR/2001/REC-SVG-20010904/DTD/svg10.dtd">
 211
<svg version="1.0" xmlns="http://www.w3.org/2000/svg"
 width="452.000000pt" height="552.000000pt" viewBox="0 0 452.000000 552.000000"
 preserveAspectRatio="xMidYMid meet">

<g transform="translate(0.000000,552.000000) scale(0.100000,-0.100000)"
fill="#000000" stroke="none">
<path d="M0 2755 l0 -2755 2124 0 2124 0 6 31 c3 17 6 1257 6 2755 l0 2724
-2130 0 -2130 0 0 -2755z m4230 0 l0 -2735 -1990 0 -1990 0 0 2735 0 2735
1990 0 1990 0 0 -2735z m-4010 0 l0 -625 -100 0 -100 0 0 625 0 625 100 0 100
0 0 -625z"/>
<path d="M480 2730 l0 -2510 1775 0 c1684 0 1775 1 1775 18 0 12 0 4917 0
4990 0 9 -362 12 -1775 12 l-1775 0 0 -2510z m850 2165 l0 -315 930 -2 c512
-2 935 -1 940 0 6 2 10 117 10 318 l0 314 398 -2 397 -3 3 -1232 2 -1233 -568
0 -568 0 -16 86 c-23 123 -66 203 -158 294 -128 128 -291 189 -470 177 -160
-12 -282 -68 -395 -181 -85 -86 -131 -172 -153 -292 l-16 -84 -578 0 -578 0 0
1235 0 1235 410 0 410 0 0 -315z m410 205 l0 -110 530 0 530 0 0 110 0 110
193 -2 192 -3 0 -300 0 -300 -912 -3 -913 -2 0 305 0 305 190 0 190 0 0 -110z
m1030 15 l0 -95 -484 0 c-266 0 -491 -3 -500 -6 -14 -5 -16 7 -16 95 l0 101
500 0 500 0 0 -95z m-362 -1860 c150 -36 299 -147 365 -273 38 -71 67 -165 67
-214 l0 -28 -570 0 c-648 0 -579 -11 -560 91 37 196 212 374 417 423 77 19
203 19 281 1z m-733 -572 c32 -156 69 -229 169 -328 119 -118 251 -170 431
-169 166 0 296 51 416 162 93 86 143 181 174 335 l5 27 570 0 570 0 0 -1230 0
-1230 -400 0 -400 0 0 315 0 315 -930 0 c-511 0 -933 0 -937 0 -5 0 -9 -142
-11 -315 l-2 -315 -410 0 -410 0 0 1230 0 1230 580 0 580 0 5 -27z m1160 -10
c-48 -283 -308 -480 -605 -460 -47 4 -106 13 -131 21 -208 65 -359 234 -394
439 l-6 37 571 0 571 0 -6 -37z m353 -2120 l2 -303 -195 0 -195 0 0 110 0 110
-530 0 -530 0 0 -110 0 -110 -190 0 -190 0 0 305 0 305 913 -2 912 -3 3 -302z
m-418 -208 l0 -95 -500 0 -500 0 0 95 0 95 500 0 500 0 0 -95z"/>
</g>
</svg>
